HIERARCHY
ROOT Hips
{
	OFFSET -3.160375 99.459145 -13.130705
	CHANNELS 6 Xposition Yposition Zposition Xrotation Yrotation Zrotation
	JOINT LeftUpLeg
	{
		OFFSET 8.910001 -6.269997 0.000000
		CHANNELS 6 Xposition Yposition Zposition Xrotation Yrotation Zrotation
		JOINT LeftLeg
		{
			OFFSET 0.000000 -44.878643 0.000000
			CHANNELS 6 Xposition Yposition Zposition Xrotation Yrotation Zrotation
			JOINT LeftFoot
			{
				OFFSET 0.000000 -40.700958 0.000000
				CHANNELS 6 Xposition Yposition Zposition Xrotation Yrotation Zrotation
				JOINT LeftToeBase
				{
					OFFSET 0.000009 -6.262317 12.954720
					CHANNELS 6 Xposition Yposition Zposition Xrotation Yrotation Zrotation
					JOINT LeftToeBaseEnd
					{
						OFFSET 0.000000 0.000000 8.000000
						CHANNELS 6 Xposition Yposition Zposition Xrotation Yrotation Zrotation
						End Site
						{
							OFFSET 0.000000 8.000000 0.000000
						}
					}
				}
			}
		}
	}
	JOINT RightUpLeg
	{
		OFFSET -8.910001 -6.269997 0.000000
		CHANNELS 6 Xposition Yposition Zposition Xrotation Yrotation Zrotation
		JOINT RightLeg
		{
			OFFSET -0.000003 -44.878643 0.000439
			CHANNELS 6 Xposition Yposition Zposition Xrotation Yrotation Zrotation
			JOINT RightFoot
			{
				OFFSET 0.000003 -40.700958 0.000000
				CHANNELS 6 Xposition Yposition Zposition Xrotation Yrotation Zrotation
				JOINT RightToeBase
				{
					OFFSET 0.000001 -6.262317 12.954749
					CHANNELS 6 Xposition Yposition Zposition Xrotation Yrotation Zrotation
					JOINT RightToeBaseEnd
					{
						OFFSET 0.000670 0.000000 8.000000
						CHANNELS 6 Xposition Yposition Zposition Xrotation Yrotation Zrotation
						End Site
						{
							OFFSET 0.000000 8.000000 0.000000
						}
					}
				}
			}
		}
	}
	JOINT Spine
	{
		OFFSET 0.000000 7.000000 0.000000
		CHANNELS 6 Xposition Yposition Zposition Xrotation Yrotation Zrotation
		JOINT Spine1
		{
			OFFSET 0.000000 12.666664 0.000000
			CHANNELS 3 Xrotation Yrotation Zrotation
			JOINT Spine2
			{
				OFFSET 0.000000 12.666672 0.000000
				CHANNELS 3 Xrotation Yrotation Zrotation
				JOINT LeftShoulder
				{
					OFFSET 7.000000 14.255219 0.000000
					CHANNELS 6 Xposition Yposition Zposition Xrotation Yrotation Zrotation
					JOINT LeftArm
					{
						OFFSET 10.707251 0.000000 0.000000
						CHANNELS 6 Xposition Yposition Zposition Xrotation Yrotation Zrotation
						JOINT LeftForeArm
						{
							OFFSET 27.305466 -0.000351 0.000000
							CHANNELS 6 Xposition Yposition Zposition Xrotation Yrotation Zrotation
							JOINT LeftHand
							{
								OFFSET 26.697144 -0.000336 0.000000
								CHANNELS 6 Xposition Yposition Zposition Xrotation Yrotation Zrotation
								JOINT LeftHandThumb1
								{
									OFFSET 4.348747 -0.798553 4.282434
									CHANNELS 6 Xposition Yposition Zposition Xrotation Yrotation Zrotation
									JOINT LeftHandThumb2
									{
										OFFSET 2.512581 -0.536133 0.707455
										CHANNELS 6 Xposition Yposition Zposition Xrotation Yrotation Zrotation
										JOINT LeftHandThumb3
										{
											OFFSET 2.543144 -0.000031 0.000010
											CHANNELS 6 Xposition Yposition Zposition Xrotation Yrotation Zrotation
											JOINT LeftHandThumb4
											{
												OFFSET 2.666748 -0.000015 -0.000009
												CHANNELS 6 Xposition Yposition Zposition Xrotation Yrotation Zrotation
												End Site
												{
													OFFSET 0.000023 2.666748 0.000000
												}
											}
										}
									}
								}
								JOINT LeftHandIndex1
								{
									OFFSET 8.821976 0.199615 3.471669
									CHANNELS 6 Xposition Yposition Zposition Xrotation Yrotation Zrotation
									JOINT LeftHandIndex2
									{
										OFFSET 4.225319 -0.000061 -0.000262
										CHANNELS 6 Xposition Yposition Zposition Xrotation Yrotation Zrotation
										JOINT LeftHandIndex3
										{
											OFFSET 2.652313 -0.000015 -0.092786
											CHANNELS 6 Xposition Yposition Zposition Xrotation Yrotation Zrotation
											JOINT LeftHandIndex4
											{
												OFFSET 1.953445 0.000000 -0.136721
												CHANNELS 6 Xposition Yposition Zposition Xrotation Yrotation Zrotation
												End Site
												{
													OFFSET -0.000008 1.958221 0.000002
												}
											}
										}
									}
								}
								JOINT LeftHandMiddle1
								{
									OFFSET 8.809883 0.500778 1.304685
									CHANNELS 6 Xposition Yposition Zposition Xrotation Yrotation Zrotation
									JOINT LeftHandMiddle2
									{
										OFFSET 4.863251 -0.000061 0.000000
										CHANNELS 6 Xposition Yposition Zposition Xrotation Yrotation Zrotation
										JOINT LeftHandMiddle3
										{
											OFFSET 2.765236 -0.000031 -0.000173
											CHANNELS 6 Xposition Yposition Zposition Xrotation Yrotation Zrotation
											JOINT LeftHandMiddle4
											{
												OFFSET 2.005630 -0.000031 -0.000251
												CHANNELS 6 Xposition Yposition Zposition Xrotation Yrotation Zrotation
												End Site
												{
													OFFSET 0.000023 2.005630 0.000000
												}
											}
										}
									}
								}
								JOINT LeftHandRing1
								{
									OFFSET 8.893768 0.379807 -0.793159
									CHANNELS 6 Xposition Yposition Zposition Xrotation Yrotation Zrotation
									JOINT LeftHandRing2
									{
										OFFSET 4.537758 -0.000061 -0.000282
										CHANNELS 6 Xposition Yposition Zposition Xrotation Yrotation Zrotation
										JOINT LeftHandRing3
										{
											OFFSET 2.304527 -0.000031 -0.000287
											CHANNELS 6 Xposition Yposition Zposition Xrotation Yrotation Zrotation
											JOINT LeftHandRing4
											{
												OFFSET 1.923347 -0.000031 -0.000360
												CHANNELS 6 Xposition Yposition Zposition Xrotation Yrotation Zrotation
												End Site
												{
													OFFSET 0.000023 1.923340 0.000000
												}
											}
										}
									}
								}
								JOINT LeftHandPinky1
								{
									OFFSET 8.882271 -0.313141 -2.490356
									CHANNELS 6 Xposition Yposition Zposition Xrotation Yrotation Zrotation
									JOINT LeftHandPinky2
									{
										OFFSET 3.044098 -0.000046 0.000000
										CHANNELS 6 Xposition Yposition Zposition Xrotation Yrotation Zrotation
										JOINT LeftHandPinky3
										{
											OFFSET 1.974503 -0.000046 0.000000
											CHANNELS 6 Xposition Yposition Zposition Xrotation Yrotation Zrotation
											JOINT LeftHandPinky4
											{
												OFFSET 1.666618 -0.000061 0.000001
												CHANNELS 6 Xposition Yposition Zposition Xrotation Yrotation Zrotation
												End Site
												{
													OFFSET 0.000092 1.666611 0.000000
												}
											}
										}
									}
								}
							}
						}
					}
				}
				JOINT RightShoulder
				{
					OFFSET -7.000000 14.255219 0.000000
					CHANNELS 6 Xposition Yposition Zposition Xrotation Yrotation Zrotation
					JOINT RightArm
					{
						OFFSET -10.707274 0.000000 0.000000
						CHANNELS 6 Xposition Yposition Zposition Xrotation Yrotation Zrotation
						JOINT RightForeArm
						{
							OFFSET -27.305599 -0.001099 0.000000
							CHANNELS 6 Xposition Yposition Zposition Xrotation Yrotation Zrotation
							JOINT RightHand
							{
								OFFSET -26.696991 -0.001083 0.000000
								CHANNELS 6 Xposition Yposition Zposition Xrotation Yrotation Zrotation
								JOINT RightHandThumb1
								{
									OFFSET -4.348351 -0.798676 4.282815
									CHANNELS 6 Xposition Yposition Zposition Xrotation Yrotation Zrotation
									JOINT RightHandThumb2
									{
										OFFSET -2.512505 -0.536194 0.707677
										CHANNELS 6 Xposition Yposition Zposition Xrotation Yrotation Zrotation
										JOINT RightHandThumb3
										{
											OFFSET -2.541588 -0.000107 0.088820
											CHANNELS 6 Xposition Yposition Zposition Xrotation Yrotation Zrotation
											JOINT RightHandThumb4
											{
												OFFSET -2.665123 -0.000137 0.093137
												CHANNELS 6 Xposition Yposition Zposition Xrotation Yrotation Zrotation
												End Site
												{
													OFFSET -0.000153 2.666748 -0.000000
												}
											}
										}
									}
								}
								JOINT RightHandIndex1
								{
									OFFSET -8.821678 0.199371 3.472445
									CHANNELS 6 Xposition Yposition Zposition Xrotation Yrotation Zrotation
									JOINT RightHandIndex2
									{
										OFFSET -4.225319 -0.000168 0.000114
										CHANNELS 6 Xposition Yposition Zposition Xrotation Yrotation Zrotation
										JOINT RightHandIndex3
										{
											OFFSET -2.652321 -0.000107 0.092696
											CHANNELS 6 Xposition Yposition Zposition Xrotation Yrotation Zrotation
											JOINT RightHandIndex4
											{
												OFFSET -1.953445 -0.000076 0.136656
												CHANNELS 6 Xposition Yposition Zposition Xrotation Yrotation Zrotation
												End Site
												{
													OFFSET -0.000076 1.958221 0.000000
												}
											}
										}
									}
								}
								JOINT RightHandMiddle1
								{
									OFFSET -8.809784 0.500534 1.305458
									CHANNELS 6 Xposition Yposition Zposition Xrotation Yrotation Zrotation
									JOINT RightHandMiddle2
									{
										OFFSET -4.863251 -0.000198 0.000132
										CHANNELS 6 Xposition Yposition Zposition Xrotation Yrotation Zrotation
										JOINT RightHandMiddle3
										{
											OFFSET -2.763550 -0.000107 0.096583
											CHANNELS 6 Xposition Yposition Zposition Xrotation Yrotation Zrotation
											JOINT RightHandMiddle4
											{
												OFFSET -2.000740 -0.000076 0.139965
												CHANNELS 6 Xposition Yposition Zposition Xrotation Yrotation Zrotation
												End Site
												{
													OFFSET -0.000084 2.005630 0.000000
												}
											}
										}
									}
								}
								JOINT RightHandRing1
								{
									OFFSET -8.893845 0.379562 -0.792377
									CHANNELS 6 Xposition Yposition Zposition Xrotation Yrotation Zrotation
									JOINT RightHandRing2
									{
										OFFSET -4.537758 -0.000183 0.000123
										CHANNELS 6 Xposition Yposition Zposition Xrotation Yrotation Zrotation
										JOINT RightHandRing3
										{
											OFFSET -2.303123 -0.000092 0.080492
											CHANNELS 6 Xposition Yposition Zposition Xrotation Yrotation Zrotation
											JOINT RightHandRing4
											{
												OFFSET -1.918655 -0.000076 0.134222
												CHANNELS 6 Xposition Yposition Zposition Xrotation Yrotation Zrotation
												End Site
												{
													OFFSET -0.000076 1.923355 0.000000
												}
											}
										}
									}
								}
								JOINT RightHandPinky1
								{
									OFFSET -8.882484 -0.313385 -2.489574
									CHANNELS 6 Xposition Yposition Zposition Xrotation Yrotation Zrotation
									JOINT RightHandPinky2
									{
										OFFSET -3.047798 -0.000122 0.000083
										CHANNELS 6 Xposition Yposition Zposition Xrotation Yrotation Zrotation
										JOINT RightHandPinky3
										{
											OFFSET -1.975693 -0.000031 0.069049
											CHANNELS 6 Xposition Yposition Zposition Xrotation Yrotation Zrotation
											JOINT RightHandPinky4
											{
												OFFSET -1.664574 0.000000 0.116447
												CHANNELS 6 Xposition Yposition Zposition Xrotation Yrotation Zrotation
												End Site
												{
													OFFSET 0.000038 1.668640 -0.000008
												}
											}
										}
									}
								}
							}
						}
					}
				}
				JOINT Neck
				{
					OFFSET 0.000000 12.666672 0.000000
					CHANNELS 6 Xposition Yposition Zposition Xrotation Yrotation Zrotation
					JOINT Head
					{
						OFFSET 0.000000 10.000000 0.000000
						CHANNELS 3 Xrotation Yrotation Zrotation
						JOINT HeadEnd
						{
							OFFSET 0.000000 20.000000 0.000000
							CHANNELS 3 Xrotation Yrotation Zrotation
							End Site
							{
								OFFSET 0.000000 20.000000 0.000000
							}
						}
					}
				}
			}
		}
	}
}
MOTION
Frames: 3
Frame Time: 0.008333
-12.159745 98.472931 -93.388832 1.878329 167.660626 -0.962891 8.909997 -6.269991 -0.000005 -5.719190 21.677745 1.008193 0.000001 -44.878639 -0.000003 20.615389 0.000000 0.000000 -0.000001 -40.700962 -0.000009 -14.247883 7.077390 3.131393 0.000005 -6.262317 12.954720 0.000043 -0.000002 0.000000 -0.000002 -0.000000 7.999983 0.000000 -0.000001 0.000000 -8.910006 -6.269992 -0.000007 1.987577 3.848090 -6.934185 -0.000003 -44.878654 0.000436 49.063680 0.000002 -0.000001 -0.000001 -40.700970 0.000003 -2.336439 -8.318096 5.239725 0.000001 -6.262321 12.954748 -1.257856 -0.000001 0.000106 0.000667 0.000002 7.999998 0.000000 -0.000000 0.000002 -0.000003 7.000010 -0.000003 2.738273 2.402102 -2.121312 5.027929 0.735784 -0.529943 4.839405 0.392866 -0.005385 7.000000 14.255229 -0.000003 -0.362608 -9.215315 -12.171231 10.707257 0.000001 -0.000008 2.194436 -25.142913 -58.710387 27.305462 -0.000377 -0.000009 -0.000219 -16.479512 -0.000031 26.697147 -0.000338 -0.000002 9.333681 3.788137 -1.460520 4.348738 -0.798532 4.282440 3.893439 10.589725 1.178021 2.512581 -0.536121 0.707453 3.793612 10.313587 1.156261 2.543152 -0.000035 0.000012 0.000001 0.000006 0.000018 2.666742 -0.000031 -0.000008 0.000002 0.000001 -0.000001 8.821985 0.199622 3.471676 -1.210530 0.555325 -9.089506 4.225316 -0.000081 -0.000263 -1.201012 0.550037 -9.015097 2.652311 -0.000013 -0.092785 0.000004 0.000002 0.000013 1.953447 -0.000022 -0.136723 -0.000001 -0.000001 -0.000004 8.809883 0.500797 1.304690 -1.746863 0.864943 -15.877668 4.863260 -0.000068 -0.000011 -1.745423 0.863954 -15.863318 2.765241 -0.000004 -0.000164 0.000001 -0.000001 0.000022 2.005632 -0.000018 -0.000258 -0.000002 -0.000001 -0.000000 8.893767 0.379810 -0.793150 -2.536031 1.313318 -15.732082 4.537762 -0.000050 -0.000292 -2.531884 1.310366 -15.704265 2.304509 -0.000038 -0.000277 -0.000002 0.000001 0.000004 1.923339 -0.000047 -0.000361 -0.000001 -0.000002 -0.000003 8.882283 -0.313124 -2.490346 -4.228433 1.622096 -15.323400 3.044093 -0.000035 0.000004 -4.213434 1.613943 -15.266047 1.974494 -0.000062 -0.000006 0.000007 0.000007 0.000005 1.666615 -0.000059 0.000002 -0.000001 -0.000000 -0.000002 -7.000001 14.255216 -0.000000 2.466555 8.252956 10.899223 -10.707268 0.000002 0.000002 -2.415891 24.819697 61.034352 -27.305593 -0.001099 -0.000005 -0.001042 24.303647 0.000222 -26.696999 -0.001076 0.000007 10.018588 -4.932305 -0.697168 -4.348345 -0.798654 4.282831 19.441495 -5.873569 -9.674733 -2.512510 -0.536194 0.707687 1.933598 -5.158771 -0.659454 -2.541589 -0.000109 0.088824 -0.000004 -0.000000 0.000000 -2.665128 -0.000121 0.093142 0.000001 -0.000000 0.000002 -8.821687 0.199382 3.472456 -1.385189 -0.735229 10.213341 -4.225327 -0.000164 0.000097 -1.377907 -0.730545 10.156703 -2.652325 -0.000091 0.092694 -0.000006 0.000013 0.000001 -1.953455 -0.000060 0.136658 0.000001 -0.000000 0.000001 -8.809792 0.500542 1.305476 -1.786063 -0.978392 15.348818 -4.863237 -0.000207 0.000137 -1.784736 -0.977448 15.336080 -2.763546 -0.000103 0.096593 0.000003 -0.000009 -0.000022 -2.000749 -0.000068 0.139956 -0.000001 0.000005 0.000000 -8.893853 0.379570 -0.792367 -2.495383 -1.444218 15.209450 -4.537752 -0.000176 0.000117 -2.489950 -1.440081 15.173417 -2.303108 -0.000080 0.080494 0.000006 -0.000007 -0.000014 -1.918660 -0.000082 0.134235 -0.000001 -0.000000 0.000002 -8.882488 -0.313394 -2.489562 -5.419944 -2.703016 19.252377 -3.047793 -0.000126 0.000087 -5.394137 -2.684306 19.152014 -1.975697 -0.000023 0.069034 -0.000012 -0.000016 -0.000009 -1.664564 0.000004 0.116440 -0.000000 0.000000 0.000002 -0.000002 12.666676 -0.000004 3.268691 -14.473637 -1.355731 -2.426711 -15.141005 -1.722060 -0.000000 -0.000001 0.000001 
-12.492233 98.619377 -94.738815 2.014638 167.658495 -1.398583 8.909995 -6.270000 0.000012 -3.966340 22.285015 0.713335 0.000000 -44.878639 0.000004 19.130882 -0.000001 -0.000000 -0.000001 -40.700958 -0.000006 -14.405745 6.625308 3.014599 0.000010 -6.262317 12.954708 0.000055 0.000000 0.000000 0.000002 0.000000 7.999998 -0.000000 0.000000 0.000000 -8.910007 -6.270006 0.000001 -0.139652 4.072869 -6.303208 -0.000003 -44.878635 0.000441 49.929127 0.000002 -0.000002 0.000003 -40.700958 -0.000001 -3.895178 -9.064476 4.188026 -0.000001 -6.262323 12.954746 -1.216512 -0.000001 0.000102 0.000672 0.000001 7.999996 -0.000001 0.000001 -0.000000 -0.000008 6.999991 0.000006 2.860645 2.008223 -1.669381 5.034988 0.527442 -0.362875 4.824593 0.327137 0.013622 7.000005 14.255234 0.000002 -0.502932 -9.326244 -12.092849 10.707256 0.000019 -0.000003 1.121344 -25.079681 -58.611533 27.305475 -0.000361 0.000001 -0.000211 -16.412721 -0.000032 26.697144 -0.000314 0.000001 9.373023 3.732888 -1.527213 4.348759 -0.798545 4.282431 3.893440 10.589725 1.178022 2.512575 -0.536116 0.707458 3.793610 10.313594 1.156263 2.543137 -0.000023 0.000010 -0.000003 0.000006 0.000018 2.666750 -0.000031 -0.000006 0.000002 -0.000001 -0.000001 8.821983 0.199631 3.471672 -1.210527 0.555327 -9.089501 4.225318 -0.000079 -0.000264 -1.201002 0.550031 -9.015098 2.652296 -0.000014 -0.092782 0.000003 0.000003 0.000013 1.953438 -0.000022 -0.136715 -0.000000 -0.000001 -0.000003 8.809887 0.500781 1.304683 -1.746866 0.864943 -15.877669 4.863253 -0.000069 -0.000006 -1.745426 0.863955 -15.863321 2.765252 -0.000028 -0.000168 -0.000002 -0.000002 0.000021 2.005640 -0.000032 -0.000241 -0.000002 0.000002 0.000002 8.893767 0.379806 -0.793167 -2.536035 1.313319 -15.732079 4.537743 -0.000048 -0.000273 -2.531877 1.310365 -15.704260 2.304527 -0.000039 -0.000283 -0.000001 0.000000 0.000003 1.923345 -0.000029 -0.000367 0.000002 0.000000 0.000001 8.882275 -0.313160 -2.490357 -4.228431 1.622098 -15.323396 3.044097 -0.000052 -0.000001 -4.213433 1.613942 -15.266052 1.974503 -0.000056 -0.000004 0.000003 0.000000 0.000003 1.666603 -0.000075 0.000004 0.000002 -0.000000 -0.000000 -6.999997 14.255222 0.000011 2.527179 8.237777 10.836823 -10.707283 -0.000012 0.000010 -2.160469 24.510574 60.957014 -27.305601 -0.001089 0.000005 -0.000985 23.123812 0.000202 -26.696991 -0.001089 -0.000008 9.874959 -5.008967 -0.756558 -4.348345 -0.798640 4.282809 19.441491 -5.873570 -9.674737 -2.512506 -0.536194 0.707681 1.933598 -5.158772 -0.659461 -2.541586 -0.000110 0.088822 -0.000003 -0.000002 -0.000001 -2.665130 -0.000124 0.093143 -0.000002 0.000000 0.000003 -8.821685 0.199387 3.472434 -1.385193 -0.735230 10.213338 -4.225334 -0.000146 0.000115 -1.377914 -0.730545 10.156712 -2.652310 -0.000105 0.092690 0.000002 0.000012 -0.000002 -1.953454 -0.000060 0.136664 0.000003 0.000000 0.000000 -8.809795 0.500538 1.305454 -1.786061 -0.978389 15.348818 -4.863234 -0.000208 0.000141 -1.784734 -0.977450 15.336080 -2.763540 -0.000095 0.096588 0.000004 -0.000009 -0.000027 -2.000745 -0.000076 0.139965 -0.000000 0.000003 -0.000001 -8.893837 0.379572 -0.792378 -2.495383 -1.444220 15.209445 -4.537764 -0.000160 0.000124 -2.489943 -1.440080 15.173417 -2.303132 -0.000084 0.080495 0.000005 -0.000006 -0.000014 -1.918649 -0.000093 0.134230 0.000000 -0.000000 0.000001 -8.882483 -0.313359 -2.489576 -5.419948 -2.703019 19.252374 -3.047778 -0.000132 0.000077 -5.394139 -2.684306 19.152018 -1.975683 -0.000029 0.069059 -0.000009 -0.000018 -0.000008 -1.664588 -0.000005 0.116447 0.000001 0.000000 -0.000000 0.000003 12.666669 0.000004 3.360219 -14.604476 -1.492363 -2.418774 -14.473596 -1.685732 -0.000000 -0.000003 0.000001 
-12.824720 98.765823 -96.088806 2.150960 167.657389 -1.834282 8.910004 -6.269993 -0.000005 -2.202473 22.883605 0.397168 0.000002 -44.878639 -0.000012 17.646378 0.000000 -0.000000 -0.000000 -40.700966 0.000002 -14.564398 6.173551 2.896656 0.000010 -6.262318 12.954720 0.000066 -0.000001 -0.000000 -0.000002 -0.000000 7.999996 0.000000 -0.000001 -0.000000 -8.909997 -6.270000 -0.000008 -2.269841 4.274120 -5.664122 -0.000001 -44.878647 0.000446 50.794525 0.000003 -0.000002 0.000003 -40.700966 -0.000004 -5.470780 -9.782109 3.113939 0.000002 -6.262318 12.954748 -1.175170 0.000001 0.000098 0.000670 0.000001 8.000010 -0.000001 0.000000 -0.000000 0.000004 6.999998 -0.000002 2.986094 1.615322 -1.216708 5.042652 0.319123 -0.195784 4.809804 0.261400 0.032613 7.000002 14.255248 -0.000003 -0.643145 -9.437367 -12.014725 10.707256 -0.000013 0.000000 0.048683 -25.018131 -58.511430 27.305462 -0.000362 -0.000003 -0.000215 -16.345930 -0.000031 26.697153 -0.000352 -0.000010 9.412311 3.677592 -1.593861 4.348760 -0.798529 4.282434 3.893442 10.589726 1.178021 2.512571 -0.536146 0.707463 3.793608 10.313593 1.156267 2.543136 -0.000052 0.000009 0.000000 0.000004 0.000018 2.666757 -0.000001 -0.000012 0.000002 -0.000001 -0.000001 8.821988 0.199653 3.471665 -1.210528 0.555329 -9.089494 4.225327 -0.000063 -0.000257 -1.201008 0.550028 -9.015098 2.652292 -0.000014 -0.092794 0.000004 0.000004 0.000011 1.953427 -0.000021 -0.136726 0.000000 -0.000003 -0.000005 8.809887 0.500791 1.304674 -1.746861 0.864943 -15.877666 4.863241 -0.000053 0.000002 -1.745427 0.863955 -15.863326 2.765242 -0.000028 -0.000179 -0.000003 -0.000003 0.000022 2.005628 -0.000035 -0.000247 -0.000005 0.000000 -0.000002 8.893760 0.379809 -0.793162 -2.536036 1.313319 -15.732074 4.537750 -0.000035 -0.000278 -2.531876 1.310366 -15.704254 2.304526 -0.000055 -0.000275 0.000001 -0.000001 0.000001 1.923360 -0.000030 -0.000356 0.000002 -0.000001 -0.000002 8.882271 -0.313126 -2.490360 -4.228431 1.622099 -15.323395 3.044093 -0.000016 0.000006 -4.213441 1.613942 -15.266045 1.974527 -0.000044 -0.000005 0.000005 -0.000004 0.000003 1.666614 -0.000062 0.000003 0.000000 -0.000003 -0.000001 -6.999995 14.255200 0.000001 2.587782 8.222535 10.774447 -10.707279 0.000003 0.000000 -1.906123 24.201139 60.881383 -27.305616 -0.001094 -0.000006 -0.000932 21.943986 0.000180 -26.696983 -0.001076 -0.000002 9.731226 -5.085477 -0.816147 -4.348355 -0.798658 4.282822 19.441490 -5.873567 -9.674733 -2.512521 -0.536191 0.707680 1.933596 -5.158771 -0.659461 -2.541567 -0.000120 0.088827 -0.000006 -0.000005 0.000001 -2.665119 -0.000153 0.093138 -0.000001 0.000000 -0.000001 -8.821692 0.199378 3.472447 -1.385187 -0.735232 10.213339 -4.225315 -0.000130 0.000104 -1.377911 -0.730546 10.156719 -2.652319 -0.000100 0.092708 -0.000000 0.000009 -0.000004 -1.953467 -0.000061 0.136670 -0.000001 0.000001 -0.000001 -8.809788 0.500546 1.305463 -1.786062 -0.978389 15.348816 -4.863252 -0.000214 0.000130 -1.784743 -0.977450 15.336083 -2.763557 -0.000088 0.096586 0.000006 -0.000012 -0.000029 -2.000746 -0.000077 0.139958 -0.000000 -0.000000 -0.000003 -8.893848 0.379570 -0.792367 -2.495385 -1.444222 15.209441 -4.537741 -0.000160 0.000132 -2.489943 -1.440080 15.173416 -2.303122 -0.000073 0.080483 0.000003 -0.000003 -0.000012 -1.918657 -0.000101 0.134214 0.000001 0.000001 -0.000003 -8.882503 -0.313377 -2.489567 -5.419944 -2.703019 19.252370 -3.047801 -0.000148 0.000075 -5.394134 -2.684306 19.152016 -1.975708 -0.000016 0.069054 -0.000011 -0.000018 -0.000010 -1.664576 0.000001 0.116449 -0.000001 0.000001 0.000001 0.000000 12.666673 -0.000000 3.451479 -14.735532 -1.628860 -2.411296 -13.806162 -1.649605 0.000000 0.000002 -0.000000 
